<svg xmlns="http://www.w3.org/2000/svg"><symbol id="cart" viewBox="0 0 72 72"><path fill="#231f20" d="M0 21.2h49.3c-.5 1.9-1 3.6-1.5 5.4s-.9.6-1.4.6H3.6c-.9 0-1.3-.2-1.6-1s-1-3.1-2-4.4z"/><path fill="#231f20" d="M9.9 45.1h37.4c1.2 0 1.6-.3 1.9-1.5 3.2-11.1 6.4-22.1 9.5-33.2.2-.7.3-1.2 1.2-1.1h11.7c-.7 1.9-1.4 3.7-2 5.5s-.6.4-1 .4a22.8 22.8 0 0 1-3.7 0c-1.1-.1-1.4.4-1.6 1.3l-9.6 33.2c-.3 1.1-.7 1.4-1.9 1.4h-38c-1 0-1.6-.2-1.9-1.2a37.8 37.8 0 0 0-2-4.8z"/><path fill="#231f20" d="M46 33.2c-.6 1.8-1.1 3.5-1.5 5.2s-.5.7-1.1.7H8.3c-.5 0-.9.1-1.1-.5S5.7 35.1 5 33.2zM25.3 63a4.5 4.5 0 1 1 .2-8.9 4.5 4.5 0 0 1-.2 8.9zm19.4-4.5a4.5 4.5 0 1 1-8.9 0 4.3 4.3 0 0 1 4.4-4.4 4.2 4.2 0 0 1 4.5 4.4z"/></symbol><symbol id="instagram" viewBox="0 0 72 72"><path fill="#231f20" d="M40.9.5h-.7L36 .1a40.5 40.5 0 0 0-6 .5l-1.3.3-2.5.6a47.2 47.2 0 0 0-9.1 4l-1.1.7A36.9 36.9 0 0 0 4.5 18.9 37.9 37.9 0 0 0 .8 29.5a33.9 33.9 0 0 0-.6 6.4 38.1 38.1 0 0 0 .5 5.9 6.8 6.8 0 0 1 .2 1.4l.6 2.5a46.3 46.3 0 0 0 4 9 36.5 36.5 0 0 0 13.3 12.7 41.3 41.3 0 0 0 10.4 3.7 37.1 37.1 0 0 0 6.7.7h.2a33.5 33.5 0 0 0 8.9-1.2 40.4 40.4 0 0 0 9.9-4.2l.7-.5.5-.3a34.6 34.6 0 0 0 11.5-12.8 41.1 41.1 0 0 0 3.6-10.4 33.9 33.9 0 0 0 .6-6.4A35.7 35.7 0 0 0 40.9.5zM56.6 46a11.1 11.1 0 0 1-10.5 10.6 170.2 170.2 0 0 1-20.2 0A11.1 11.1 0 0 1 15.4 46c-.3-3.3-.3-6.7-.3-10s-.2-7.8.6-11.6a10.5 10.5 0 0 1 10.2-9 136.2 136.2 0 0 1 20.2 0A11 11 0 0 1 56.6 26a133.5 133.5 0 0 1 0 20z"/><path fill="#231f20" d="M36 19a46.9 46.9 0 0 1 10.6.2c4 .7 6.2 3.3 6.4 7.4.3 6.3.3 12.5 0 18.7-.2 4.5-3.2 7.4-7.7 7.6-6.2.3-12.4.3-18.5.1s-7.6-3.2-7.8-7.8c-.3-6.2-.3-12.3 0-18.5.2-4.6 3.2-7.6 7.8-7.7 3.1-.1 6.2 0 9.2 0zm10.7 17a10.7 10.7 0 1 0-10.8 10.7A10.8 10.8 0 0 0 46.7 36zm.5-13.7a2.5 2.5 0 0 0-2.5 2.4 2.6 2.6 0 0 0 2.5 2.6 2.5 2.5 0 0 0 0-5z"/><path fill="#231f20" d="M43 35.9a7.1 7.1 0 0 1-7 7.1 7 7 0 0 1 0-14 6.9 6.9 0 0 1 7 6.9z"/></symbol><symbol id="search" viewBox="0 0 72 72"><path fill="#231f20" d="M51.6 14.6l-.8-1.3-.3-.5A27.5 27.5 0 0 0 3 15.3a3 3 0 0 0-.4.8l-.3.6c-.1.1-.1.3-.2.4a26.4 26.4 0 0 0-1.5 5 2.9 2.9 0 0 1-.2.9 34.2 34.2 0 0 0-.4 4.5v.2a26.9 26.9 0 0 0 4 14v.2c.1.3.3.5.4.8a1 1 0 0 1 .4.5l.3.4a28 28 0 0 0 18.7 11.2h7.3l1-.2h.2l1.2-.3 1.3-.3h.1l1.2-.4h.2l.9-.3.5-.2.6-.3.8-.3.3-.2a27.5 27.5 0 0 0 12.2-37.7zM27.5 45.5a17.9 17.9 0 1 1 17.9-17.9 18 18 0 0 1-17.9 17.9zm43.2 16.6L62.5 54l-6.6-6.6c-.3-.3-.5-.9-1.1-.1a37 37 0 0 1-9 8.6l1.5 1 13.2 13.2s2 2.1 3 .9h.2c2.2-2.4 4.6-4.7 6.9-7 .7-.8.8-1.2.1-1.9z"/></symbol><symbol id="phone" viewBox="0 0 72 72"><path fill="#231f20" d="M.9 43.2c.2 1 .5 2 .7 2.9a50.4 50.4 0 0 0 2.7 6.6h.1a5.9 5.9 0 0 0 .4.8A35.9 35.9 0 0 0 70.7 45c0-.3.1-.5.1-.8a10.5 10.5 0 0 0 .4-1.7l.3-1.8c0-.2.1-.5.1-.7s.1-.7.1-1v-.8a3.4 3.4 0 0 0 .1-1v-3.3a6.6 6.6 0 0 1-.1-1.4c0-.1-.1-.2-.1-.3A35.8 35.8 0 0 0 .2 36a40.7 40.7 0 0 0 .5 6.1c.1.4.1.8.2 1.1zm30.6-24.9c.6-.2.7 0 1 .5 1.4 2.9 2.9 5.8 4.4 8.7.3.6.3.8-.3 1l-1.3.7c-1.9.9-2.3 1.7-1.9 3.8a19 19 0 0 0 4.4 8.7c1.6 1.9 2.4 2 4.6 1s1.8-.9 2.7.9l3.8 7.3c.5.8.2 1.1-.5 1.5-4.5 2.3-7.4 2-11.3-1.7a37.4 37.4 0 0 1-10.9-19.3c-.3-1.1-.4-2.3-.6-3.4v-1c-.1-4.6 1.7-7.1 5.9-8.7z"/></symbol><symbol id="facebook" viewBox="0 0 72 72"><path fill="#231f20" d="M36 71.8a35.8 35.8 0 0 0 35.8-35.6v-2.4a2.2 2.2 0 0 1-.1-.8c0-.3-.1-.7-.1-1.1s0-.3-.1-.4a7.7 7.7 0 0 0-.2-1.5A35.1 35.1 0 0 0 64 13.7l-.3-.5c-.2-.1-.3-.3-.5-.5l-.7-.8-.3-.3-.8-.9-.4-.4-.9-.8-.4-.4-.8-.7-.6-.5-.8-.6-.7-.5-.7-.4-.7-.5-.7-.5-.8-.4-.7-.4-.7-.4-.9-.5-.4-.2L50 3h-.1A37.1 37.1 0 0 0 41.1.5a1 1 0 0 1-.9-.1L36.6.2h-1.2a24.2 24.2 0 0 0-4.7.4 12.5 12.5 0 0 1-1.9.3l-1.3.3a35.8 35.8 0 0 0-15.9 8.6h-.1l-1.7 1.8h-.1a14.6 14.6 0 0 0-1.6 1.9l-.2.2c-1.1 1.5-2 2.9-2.9 4.3h-.1a41.6 41.6 0 0 0-2.2 4.8h-.1l-.9 2.5a11.7 11.7 0 0 0-.5 2l-.3 1.4v.3a32.6 32.6 0 0 0-.7 7A35.8 35.8 0 0 0 36 71.8zM24.9 30.1h4.2c.7 0 .9-.2 1-1 0-2.7-.3-5.3.2-7.9a6.5 6.5 0 0 1 5.4-5.8c2.8-.6 5.7-.3 8.6-.3.6-.1.7.2.7.7 0 2.5-.1 5 0 7.5 0 .7-.3.8-.9.8h-3.4c-1.1 0-1.7.5-1.7 1.6v.3c-.2 4.2-.2 4.2 3.9 4.2h2c-.2 1.8-.4 3.5-.5 5.2s-.3.8-.9.8a.6.6 0 0 0-.6 0c-1.3 0-3-.6-3.7.2s-.2 2.5-.2 3.8c0 5.2-.1 10.3 0 15.5 0 1.3-.3 1.5-1.5 1.5s-4.2-.1-6.4 0S30 56.9 30 56c0-6.2 0-12.4.1-18.6 0-1-.3-1.3-1.3-1.3h-3.9c-.7 0-.9-.2-.9-.9a30.9 30.9 0 0 0 0-4.2c0-.7.2-.9.9-.9z"/></symbol></svg>