<svg id="Layer_1" data-name="Layer 1" xmlns="http://www.w3.org/2000/svg" width="380" height="143" viewBox="0 0 380 143"><title>Artboard 1</title><polygon points="44.9 48.3 54.3 39.4 86.1 39.4 95.9 48.2 95.9 101 89.7 107.2 51.1 107.2 44.9 101 44.9 48.3" fill="none" stroke="#fbb040" stroke-miterlimit="10" stroke-width="4"/><path d="M116.4,41.2v-1h21.7a36.4,36.4,0,0,1,5.6.5,18.2,18.2,0,0,1,5.4,1.9,11.3,11.3,0,0,1,4,3.5,9,9,0,0,1,1.6,5.5,8.2,8.2,0,0,1-1.5,5,15.1,15.1,0,0,1-3.8,3.3,18.2,18.2,0,0,1-4.5,2l-4,.9v.2l5.5.9a19.1,19.1,0,0,1,5.3,2.2,13.5,13.5,0,0,1,4,3.9,11.1,11.1,0,0,1,1.6,6,10,10,0,0,1-2.1,6.6,14.9,14.9,0,0,1-4.9,4.1,22.7,22.7,0,0,1-6.2,2.1,33.7,33.7,0,0,1-5.9.6H116.4v-.9h6.3V41.2Zm19,21.2a11,11,0,0,0,4.9-.9,6,6,0,0,0,2.7-2.2,6.8,6.8,0,0,0,1.1-3.2,21.9,21.9,0,0,0,.3-3.6,25.4,25.4,0,0,0-.5-5.2,9.6,9.6,0,0,0-1.3-3.6,6.4,6.4,0,0,0-2.7-2.1,12.7,12.7,0,0,0-4.3-.6h-1.5l-1.5.2V62.4Zm1.2,25.9a16.2,16.2,0,0,0,4-.5,6.3,6.3,0,0,0,2.9-2,8.3,8.3,0,0,0,1.9-4,25,25,0,0,0,.7-6.7c0-.8-.1-1.9-.2-3.2a10.5,10.5,0,0,0-1.2-3.8,9,9,0,0,0-2.8-3.4,8.8,8.8,0,0,0-5.3-1.4h-4V88.1Z" fill="#231f20"/><path d="M172.6,74.9c0,1.7.1,3.3.2,5a14.9,14.9,0,0,0,1.1,4.5,7.3,7.3,0,0,0,7.4,4.6,9.6,9.6,0,0,0,4.7-1,12.2,12.2,0,0,0,3-2.4,8.7,8.7,0,0,0,1.8-2.6,12,12,0,0,0,.7-1.9l.9.3a12.4,12.4,0,0,1-1.1,2.8A11.8,11.8,0,0,1,189,87a12.2,12.2,0,0,1-3.6,2.1,15.2,15.2,0,0,1-5.1.8,20.9,20.9,0,0,1-6.7-1,16.5,16.5,0,0,1-5.3-3.1,12.8,12.8,0,0,1-3.6-5,15.3,15.3,0,0,1-1.3-6.6A15.3,15.3,0,0,1,168,63.5a17.1,17.1,0,0,1,5.1-3.5,14.4,14.4,0,0,1,6.2-1.3,15.9,15.9,0,0,1,4.8.7,14.2,14.2,0,0,1,4.4,2.3,14.3,14.3,0,0,1,3.1,4.1,14,14,0,0,1,1.3,6H172.6Zm11-8.6a14.2,14.2,0,0,0-.1-1.9,6.3,6.3,0,0,0-.5-2.2,3.8,3.8,0,0,0-1.3-1.8,4,4,0,0,0-2.6-.8,5.7,5.7,0,0,0-3.6,1.1,8.2,8.2,0,0,0-1.9,2.8,13.5,13.5,0,0,0-.7,3.6c-.2,1.3-.2,2.6-.3,3.8h11Z" fill="#231f20"/><path d="M227.3,89.7l-3.4.2c-2.4,0-4.1-.4-5.2-1.2a5.5,5.5,0,0,1-2.1-3.4h-.2a6.7,6.7,0,0,1-3,3.7,13.4,13.4,0,0,1-5.5.9l-3.4-.3a10.4,10.4,0,0,1-3.1-1.1,6.1,6.1,0,0,1-2.4-2.1,5.8,5.8,0,0,1-.9-3.3,6.7,6.7,0,0,1,.8-3.3,6.3,6.3,0,0,1,2.1-2.2,9,9,0,0,1,2.9-1.6l3.3-1.1,4.6-1.4,2.7-1.2a5.8,5.8,0,0,0,1.3-1.5,6.5,6.5,0,0,0,.4-2.1V64.5a6.7,6.7,0,0,0-.9-3.4c-.6-1-1.7-1.5-3.4-1.5a6,6,0,0,0-2.7.7A2.9,2.9,0,0,0,208,63a2.3,2.3,0,0,0,.1.7c0,.3.1.7.1,1.1s.1.8.2,1.2v.8a2.2,2.2,0,0,1-.5,1.6,2.8,2.8,0,0,1-1.1.8,3.2,3.2,0,0,1-1.4.3h-2.6l-1.2-.5a3.6,3.6,0,0,1-1-1.1,4.5,4.5,0,0,1-.3-1.8,5.1,5.1,0,0,1,1-3.2,7.6,7.6,0,0,1,2.6-2.4,17.8,17.8,0,0,1,3.7-1.4,21.2,21.2,0,0,1,4.4-.4,25.6,25.6,0,0,1,4.9.4,8.8,8.8,0,0,1,4,1.5,7,7,0,0,1,2.6,3,9.4,9.4,0,0,1,1,4.7v17a7.3,7.3,0,0,0,.4,2.3c.3.7.9,1,1.9,1a3.3,3.3,0,0,0,1.5-.3,5,5,0,0,0,1.1-1l.6.6A3.7,3.7,0,0,1,227.3,89.7ZM216,72a1.4,1.4,0,0,1-.5.8,3.6,3.6,0,0,1-1.3.9l-2.6,1.2a9.7,9.7,0,0,0-2.4,1.5,6.9,6.9,0,0,0-2.3,5.5,12.8,12.8,0,0,0,.1,1.9,7.9,7.9,0,0,0,.6,2.2,5.2,5.2,0,0,0,1.3,1.7,3.7,3.7,0,0,0,2.5.7,3.5,3.5,0,0,0,1.7-.4,4.8,4.8,0,0,0,1.6-1.3,7.5,7.5,0,0,0,1.1-2.2,16.7,16.7,0,0,0,.4-3.4V72Z" fill="#231f20"/><path d="M246.4,59.6v5.8h.1a12.5,12.5,0,0,1,3.3-4.5,7.8,7.8,0,0,1,5.5-1.9,7,7,0,0,1,4.7,1.5,5.5,5.5,0,0,1,1.8,4.3,4.8,4.8,0,0,1-1,3.3,4.3,4.3,0,0,1-3.2,1.1,7.2,7.2,0,0,1-2.9-.6,2.7,2.7,0,0,1-1.3-2.5,2.6,2.6,0,0,1,.1-.7,5.2,5.2,0,0,1,.2-1.1c0-.4.1-.7.1-1a2.1,2.1,0,0,0,.1-.6,2.4,2.4,0,0,0-.2-.9,1.2,1.2,0,0,0-.5-.5c-.2-.2-.5-.2-.9-.2a3.8,3.8,0,0,0-1.7.6,6.8,6.8,0,0,0-1.9,1.9,13.9,13.9,0,0,0-1.6,3,11.8,11.8,0,0,0-.6,3.9V88.1h5.4V89H233.7v-.9h4.4V60.6h-4.4v-1Z" fill="#231f20"/><path d="M273,74.9a41.8,41.8,0,0,0,.2,5,12.4,12.4,0,0,0,1.1,4.5,7.1,7.1,0,0,0,2.6,3.3,7.4,7.4,0,0,0,4.8,1.3,9.5,9.5,0,0,0,4.6-1,11.1,11.1,0,0,0,3.1-2.4,8.7,8.7,0,0,0,1.8-2.6,5.5,5.5,0,0,0,.6-1.9l1,.3a9.4,9.4,0,0,1-1.2,2.8,11.3,11.3,0,0,1-2.2,2.8,12.6,12.6,0,0,1-8.8,2.9,20.7,20.7,0,0,1-6.6-1,15.9,15.9,0,0,1-5.4-3.1,15.1,15.1,0,0,1-4.9-11.6,14.2,14.2,0,0,1,1.2-5.7,17.7,17.7,0,0,1,3.4-5,20.1,20.1,0,0,1,5.1-3.5,14.8,14.8,0,0,1,6.3-1.3,15.9,15.9,0,0,1,4.8.7,13.7,13.7,0,0,1,4.3,2.3,14.6,14.6,0,0,1,3.2,4.1,14,14,0,0,1,1.2,6H273Zm10.9-8.6V64.4a9.8,9.8,0,0,0-.5-2.2,4.6,4.6,0,0,0-1.3-1.8,4.2,4.2,0,0,0-2.6-.8,5.3,5.3,0,0,0-3.6,1.1,6.1,6.1,0,0,0-1.9,2.8,13.5,13.5,0,0,0-.8,3.6c-.1,1.3-.2,2.6-.2,3.8h10.9Z" fill="#231f20"/><path d="M311.1,59.6v5.8h.1a14.1,14.1,0,0,1,3.4-4.5,7.7,7.7,0,0,1,5.5-1.9,7.2,7.2,0,0,1,4.7,1.5,5.8,5.8,0,0,1,1.7,4.3,4.8,4.8,0,0,1-1,3.3,4,4,0,0,1-3.1,1.1,6.5,6.5,0,0,1-2.9-.6,2.6,2.6,0,0,1-1.3-2.5v-.7c.1-.3.1-.7.2-1.1s.1-.7.2-1v-.6a2.4,2.4,0,0,0-.2-.9c0-.2-.2-.3-.4-.5s-.5-.2-.9-.2a3.2,3.2,0,0,0-1.7.6,7.1,7.1,0,0,0-2,1.9,10.5,10.5,0,0,0-1.5,3,11.8,11.8,0,0,0-.7,3.9V88.1h5.5V89H298.4v-.9h4.5V60.6h-4.5v-1Z" fill="#231f20"/><rect x="129.3" y="103.6" width="193.8" height="4.59" fill="#231f20"/><rect x="120.1" y="103.6" width="4.6" height="4.59" fill="#231f20"/><rect x="55.2" y="51.3" width="30.5" height="44.73" fill="none" stroke="#fbb040" stroke-miterlimit="10" stroke-width="3.03"/><polyline points="68.5 39.4 85.7 73.7 77.4 39.4" fill="none" stroke="#fbb040" stroke-linejoin="round" stroke-width="3"/><polyline points="44.9 101 59 107.2 44.9 81" fill="none" stroke="#fbb040" stroke-linejoin="round" stroke-width="3.03"/><line x1="60.8" y1="107.2" x2="95" y2="79.5" fill="none" stroke="#fbb040" stroke-linejoin="round" stroke-width="3.03"/><polyline points="55.2 70.4 59 57.3 74.4 51.3" fill="none" stroke="#fbb040" stroke-linejoin="round" stroke-width="3.03"/></svg>